<svg xmlns="http://www.w3.org/2000/svg" version="1.0" width="750.000000pt" height="750.000000pt" viewBox="0 0 750.000000 750.000000" preserveAspectRatio="xMidYMid meet">

<g transform="translate(0.000000,750.000000) scale(0.100000,-0.100000)" fill="#a86b0a" stroke="none">
<path d="M3555 6312 c-19 -13 -45 -70 -45 -97 0 -14 7 -33 15 -41 8 -9 15 -24 15 -35 0 -10 5 -19 10 -19 6 0 13 -1 16 -2 3 -2 18 19 34 46 27 50 27 50 10 89 -21 47 -41 69 -55 59z" fill="#a86b0a"/>
<path d="M3372 6262 c-18 -6 -15 -149 5 -208 16 -49 72 -114 96 -114 9 0 12 11 9 35 -4 35 -4 35 22 24 14 -7 28 -10 31 -8 8 9 -27 122 -49 158 -33 51 -100 118 -114 113z" fill="#a86b0a"/>
<path d="M3704 6227 c-66 -72 -104 -149 -104 -209 l0 -38 25 16 c34 22 44 10 23 -27 -16 -27 -16 -29 0 -29 49 1 106 90 117 182 8 61 -1 148 -14 148 -4 0 -25 -19 -47 -43z" fill="#a86b0a"/>
<path d="M3180 6137 c0 -25 33 -112 52 -136 24 -32 73 -61 101 -61 18 0 22 6 24 34 2 20 -3 39 -12 46 -8 7 -15 18 -15 24 0 24 -108 106 -139 106 -6 0 -11 -6 -11 -13z" fill="#a86b0a"/>
<path d="M3905 6139 c-60 -33 -94 -64 -114 -104 -29 -58 -21 -95 20 -95 16 0 29 4 29 9 0 5 8 12 18 15 27 9 71 88 78 140 7 48 3 53 -31 35z" fill="#a86b0a"/>
<path d="M3403 5902 c-58 -1 -103 -7 -103 -12 0 -6 103 -10 273 -9 161 1 256 4 232 9 -49 10 -264 16 -402 12z" fill="#a86b0a"/>
<path d="M3448 5843 c67 -2 177 -2 245 0 67 1 12 3 -123 3 -135 0 -190 -2 -122 -3z" fill="#a86b0a"/>
<path d="M3356 5793 c5 -5 104 -6 219 -3 l210 6 -219 2 c-121 1 -216 -1 -210 -5z" fill="#a86b0a"/>
<path d="M3530 5695 c-10 -12 -10 -18 0 -30 25 -30 67 -7 49 27 -12 22 -32 23 -49 3z" fill="#a86b0a"/>
<path d="M3683 5703 c-18 -7 -16 -38 2 -53 21 -17 45 -5 45 24 0 18 -21 41 -33 35 -1 0 -8 -3 -14 -6z" fill="#a86b0a"/>
<path d="M3380 5675 c0 -31 26 -43 47 -22 21 21 9 47 -22 47 -20 0 -25 -5 -25 -25z" fill="#a86b0a"/>
<path d="M3245 5676 c-16 -12 -18 -18 -9 -33 14 -23 34 -23 48 -1 8 14 7 21 -5 33 -13 13 -17 13 -34 1z" fill="#a86b0a"/>
<path d="M3828 5679 c-26 -15 -22 -36 8 -43 33 -9 48 5 39 33 -7 23 -21 26 -47 10z" fill="#a86b0a"/>
<path d="M3977 5655 c-32 -23 -15 -55 29 -55 18 0 19 56 1 63 -7 3 -21 -1 -30 -8z" fill="#a86b0a"/>
<path d="M3103 5653 c-7 -3 -13 -15 -13 -28 0 -13 6 -25 13 -28 17 -6 47 11 47 28 0 17 -30 34 -47 28z" fill="#a86b0a"/>
<path d="M4117 5613 c-12 -11 -8 -51 6 -56 19 -7 47 12 47 32 0 24 -37 41 -53 24z" fill="#a86b0a"/>
<path d="M2942 5583 c2 -22 9 -29 31 -31 24 -3 27 0 27 27 0 28 -3 31 -31 31 -27 0 -30 -3 -27 -27z" fill="#a86b0a"/>
<path d="M4254 5555 c-9 -23 3 -45 26 -45 25 0 37 25 20 45 -16 19 -39 19 -46 0z" fill="#a86b0a"/>
<path d="M2811 5546 c-9 -11 -9 -19 1 -35 16 -26 27 -26 43 -4 26 35 -17 71 -44 39z" fill="#a86b0a"/>
<path d="M4393 5503 c-18 -7 -16 -50 2 -57 24 -9 45 4 45 29 0 18 -22 40 -33 34 -1 0 -8 -3 -14 -6z" fill="#a86b0a"/>
<path d="M2672 5463 c2 -22 9 -29 31 -31 24 -3 27 0 27 27 0 28 -3 31 -31 31 -27 0 -30 -3 -27 -27z" fill="#a86b0a"/>
<path d="M3765 5385 l-26 -56 15 -137 c9 -75 20 -216 26 -312 6 -96 15 -215 20 -265 13 -133 12 -295 -1 -295 -6 0 -28 -13 -49 -30 -21 -16 -41 -30 -44 -30 -4 0 -12 -5 -19 -10 -40 -34 -190 -140 -198 -140 -5 0 -9 -4 -9 -8 0 -4 -20 -21 -45 -36 -25 -16 -45 -33 -45 -37 0 -5 -7 -9 -15 -9 -8 0 -15 -3 -15 -7 0 -5 -20 -21 -45 -38 -24 -16 -45 -33 -45 -37 0 -5 -7 -8 -15 -8 -9 0 -16 -14 -20 -37 -10 -63 -25 -113 -35 -113 -5 0 -12 17 -15 38 -4 20 -11 48 -16 62 -5 14 -13 45 -18 70 -16 81 -33 145 -47 172 -8 14 -14 33 -14 42 0 9 -4 24 -9 34 -5 9 -34 67 -63 127 -29 61 -57 115 -61 120 -4 6 -25 37 -45 70 -21 33 -51 81 -67 107 -35 56 -55 61 -55 15 0 -18 -6 -57 -14 -87 -13 -48 -13 -57 0 -71 8 -8 14 -20 14 -26 0 -6 3 -13 8 -15 11 -5 52 -66 52 -78 0 -5 4 -10 8 -10 4 0 13 -12 20 -27 6 -16 20 -41 31 -58 19 -29 116 -220 132 -260 63 -160 63 -197 -2 -297 -28 -43 -55 -78 -60 -78 -5 0 -9 -4 -9 -10 0 -5 -24 -33 -54 -62 -88 -87 -120 -112 -166 -134 -8 -4 -17 -11 -20 -14 -9 -13 -144 -77 -189 -91 -60 -18 -142 -15 -188 6 -37 18 -55 36 -82 85 -16 30 -18 161 -3 211 25 79 30 109 20 109 -5 0 -12 -9 -15 -20 -3 -11 -9 -20 -14 -20 -5 0 -9 -7 -9 -16 0 -9 -6 -28 -14 -42 -49 -97 -64 -283 -28 -352 32 -63 53 -89 90 -112 53 -32 209 -32 297 1 74 28 157 72 168 89 4 6 12 12 18 12 14 0 28 13 127 110 89 88 175 204 187 253 4 15 11 27 16 27 5 0 9 9 9 21 0 38 23 14 45 -47 11 -32 33 -83 48 -112 29 -57 34 -96 16 -108 -16 -9 -69 -127 -87 -194 -24 -86 -28 -321 -6 -390 25 -82 72 -179 105 -221 16 -20 29 -42 29 -48 0 -6 4 -11 9 -11 5 0 29 -19 54 -42 25 -24 67 -54 94 -68 26 -14 50 -28 51 -32 2 -5 13 -8 23 -8 11 0 34 -8 52 -17 26 -14 60 -17 178 -18 94 0 151 4 160 11 8 7 30 15 49 19 19 4 44 14 55 21 11 8 27 14 36 14 10 0 19 3 21 8 2 4 22 20 45 35 47 33 163 143 163 156 0 4 9 16 20 26 11 10 20 24 20 31 0 7 3 14 8 16 9 4 52 91 52 107 0 6 4 11 9 11 4 0 11 17 14 38 19 113 32 136 97 168 30 15 99 80 147 138 19 23 79 140 103 201 39 98 52 393 25 545 -10 52 -24 109 -31 127 -8 17 -14 40 -14 50 0 10 -4 23 -8 29 -5 5 -17 31 -27 57 -20 57 -79 173 -118 234 -15 24 -27 47 -27 52 0 5 -3 11 -7 13 -11 5 -53 66 -53 77 0 5 -3 11 -7 13 -12 5 -53 66 -53 78 0 5 -4 10 -9 10 -5 0 -22 20 -38 45 -15 25 -31 45 -35 45 -5 0 -8 6 -8 14 0 8 -4 16 -8 18 -5 2 -26 28 -47 58 -21 30 -42 59 -47 65 -4 5 -45 60 -90 120 -45 61 -84 112 -87 115 -3 3 -18 23 -33 45 -15 22 -41 56 -58 75 -17 19 -38 47 -46 63 -8 15 -19 27 -24 27 -6 0 -10 7 -10 15 0 8 -4 15 -9 15 -5 0 -19 16 -31 35 -12 19 -25 35 -30 35 -5 0 -20 -25 -35 -55z m161 -346 c22 -25 57 -67 79 -93 22 -27 45 -54 50 -60 6 -6 28 -33 50 -61 22 -27 42 -52 45 -55 3 -3 18 -23 33 -46 15 -22 35 -49 45 -60 77 -88 293 -428 361 -569 19 -38 38 -78 42 -87 13 -27 45 -126 64 -200 30 -115 5 -289 -61 -421 -8 -16 -14 -35 -14 -43 0 -8 -4 -14 -9 -14 -5 0 -14 -13 -21 -30 -7 -16 -16 -30 -21 -30 -5 0 -9 -4 -9 -9 0 -18 -123 -151 -139 -151 -11 0 -27 50 -38 115 -7 43 -12 52 -60 101 -59 59 -139 64 -501 34 -157 -13 -293 -4 -347 24 -16 9 -36 16 -42 16 -7 0 -13 3 -13 8 0 4 -10 12 -22 17 -43 20 -44 39 -4 78 20 20 41 37 46 37 6 0 10 4 10 8 0 19 196 133 315 183 82 35 319 92 436 105 l55 6 37 69 c20 37 37 70 37 73 0 10 -85 7 -116 -4 -94 -31 -773 -71 -780 -45 -2 6 25 28 59 50 34 21 88 59 119 82 31 24 61 43 66 43 5 0 12 7 16 15 3 8 10 15 16 15 11 0 24 9 60 42 41 37 57 33 82 -21 17 -36 36 -58 73 -82 43 -28 58 -33 117 -33 64 -1 68 0 95 33 47 56 65 173 41 255 -15 50 -32 68 -86 89 -37 15 -46 15 -94 1 -29 -8 -62 -19 -72 -25 -30 -17 -43 10 -45 93 -1 40 -6 190 -11 332 -5 143 -6 264 -3 269 6 10 5 10 59 -54z m143 -744 c17 -8 35 -30 45 -55 21 -54 21 -57 -14 -75 -27 -14 -35 -14 -82 0 -54 16 -108 64 -108 96 0 11 15 22 43 32 55 20 82 20 116 2z m-441 -517 c-2 -6 -27 -23 -54 -37 -48 -24 -156 -100 -179 -125 -6 -6 -28 -26 -48 -45 -36 -34 -37 -34 -52 -15 -22 29 -85 164 -85 183 0 6 15 11 33 11 18 0 58 5 88 10 44 8 135 17 282 29 10 0 17 -4 15 -11z m-279 -465 c65 -64 75 -71 105 -79 15 -3 28 -10 31 -14 3 -4 42 -13 87 -20 69 -10 111 -9 243 4 88 9 183 20 210 25 83 16 212 13 248 -5 58 -30 72 -52 72 -117 l0 -59 -60 -32 c-74 -40 -169 -76 -199 -76 -12 0 -26 -4 -31 -9 -6 -5 -21 -11 -35 -14 -14 -2 10 -5 53 -6 43 0 86 3 96 9 30 16 151 25 151 11 0 -12 -28 -74 -53 -116 -62 -107 -236 -240 -347 -266 -19 -4 -53 -12 -75 -18 -57 -15 -173 -13 -220 4 -22 8 -48 15 -58 15 -9 0 -34 9 -54 20 -21 11 -43 20 -50 20 -7 0 -13 5 -13 10 0 6 -7 10 -15 10 -21 0 -147 127 -169 170 -46 90 -58 151 -59 285 0 100 4 140 17 175 34 87 51 120 63 120 7 0 35 -21 62 -47z" fill="#a86b0a"/>
<path d="M4286 3735 c-4 -11 2 -15 28 -15 55 0 63 -22 24 -67 -18 -21 -37 -41 -43 -45 -5 -4 -7 -9 -4 -13 7 -7 59 41 59 55 0 5 6 10 13 10 15 0 38 56 30 76 -7 20 -99 19 -107 -1z" fill="#a86b0a"/>
<path d="M3887 3536 c-11 -39 0 -84 24 -97 26 -13 48 0 65 40 11 26 11 31 -1 31 -7 0 -15 -6 -17 -12 -8 -24 -56 8 -60 39 l-3 28 -8 -29z" fill="#a86b0a"/>
<path d="M4260 3535 c0 -30 38 -55 83 -55 23 0 60 9 82 20 45 23 46 23 -57 20 -46 -1 -78 2 -78 8 0 5 -7 12 -15 16 -9 3 -15 0 -15 -9z" fill="#a86b0a"/>
<path d="M3632 2951 c-40 -63 -41 -85 -2 -103 17 -7 30 -16 30 -20 0 -5 4 -8 10 -8 5 0 26 -12 47 -26 l38 -25 26 32 c14 18 34 48 44 66 18 34 18 34 -6 51 -32 23 -59 39 -86 51 -11 5 -24 15 -28 20 -14 24 -42 9 -73 -38z" fill="#a86b0a"/>
<path d="M3370 2925 c-14 -16 -8 -50 15 -79 20 -27 59 -14 75 24 13 31 6 55 -9 31 -12 -19 -44 -10 -57 17 -10 20 -13 21 -24 7z" fill="#a86b0a"/>
<path d="M4506 5414 c-8 -20 11 -44 34 -44 20 0 32 23 24 45 -8 20 -50 19 -58 -1z" fill="#a86b0a"/>
<path d="M2550 5391 c0 -33 19 -41 50 -21 20 13 2 44 -29 48 -18 3 -21 -2 -21 -27z" fill="#a86b0a"/>
<path d="M4635 5334 c-15 -15 -15 -18 1 -35 23 -26 42 -24 50 5 11 44 -19 62 -51 30z" fill="#a86b0a"/>
<path d="M2430 5331 c0 -5 -3 -16 -6 -24 -9 -24 31 -41 50 -21 13 12 13 19 3 34 -12 20 -47 28 -47 11z" fill="#a86b0a"/>
<path d="M3544 5246 c-33 -17 -89 -44 -125 -60 -35 -16 -91 -42 -125 -57 -33 -16 -66 -29 -72 -29 -7 0 -12 -4 -12 -9 0 -5 -13 -12 -30 -16 -16 -4 -30 -10 -30 -15 0 -4 -12 -11 -27 -15 -15 -3 -30 -10 -33 -13 -3 -4 -32 -21 -65 -37 -61 -30 -145 -106 -145 -131 0 -16 19 -10 70 21 19 12 71 39 115 61 44 21 82 41 85 44 10 10 157 80 168 80 7 0 12 4 12 9 0 5 10 13 23 16 38 11 210 99 229 117 15 15 37 70 27 67 -2 -1 -31 -16 -65 -33z" fill="#a86b0a"/>
<path d="M4758 5253 c-34 -9 -14 -63 23 -63 22 0 31 37 12 55 -8 8 -15 14 -16 14 -1 -1 -10 -3 -19 -6z" fill="#a86b0a"/>
<path d="M2314 5226 c-10 -26 4 -48 28 -44 17 2 23 10 23 28 0 18 -6 26 -23 28 -13 2 -25 -3 -28 -12z" fill="#a86b0a"/>
<path d="M4856 5144 c-15 -39 2 -58 43 -47 24 6 27 28 7 49 -19 19 -42 18 -50 -2z" fill="#a86b0a"/>
<path d="M2203 5114 c-8 -20 21 -49 41 -41 9 4 16 18 16 32 0 20 -5 25 -25 25 -14 0 -28 -7 -32 -16z" fill="#a86b0a"/>
<path d="M4950 5010 c0 -27 3 -30 30 -30 27 0 30 3 30 30 0 27 -3 30 -30 30 -27 0 -30 -3 -30 -30z" fill="#a86b0a"/>
<path d="M2107 5013 c-13 -13 -7 -32 14 -44 26 -14 53 8 43 34 -6 17 -44 23 -57 10z" fill="#a86b0a"/>
<path d="M5042 4893 c2 -22 8 -28 28 -28 20 0 26 6 28 28 3 24 0 27 -28 27 -28 0 -31 -3 -28 -27z" fill="#a86b0a"/>
<path d="M2027 4895 c-23 -16 -22 -32 4 -45 15 -9 24 -8 35 1 32 27 -4 70 -39 44z" fill="#a86b0a"/>
<path d="M3360 4787 c0 -13 6 -35 13 -50 22 -48 87 -29 87 25 0 10 -10 13 -34 10 -27 -3 -34 0 -39 17 -7 28 -27 27 -27 -2z" fill="#a86b0a"/>
<path d="M5124 4786 c-10 -26 4 -48 28 -44 17 2 23 10 23 28 0 18 -6 26 -23 28 -13 2 -25 -3 -28 -12z" fill="#a86b0a"/>
<path d="M1947 4773 c-12 -11 -7 -40 9 -53 13 -11 19 -10 37 9 22 22 22 22 3 37 -21 15 -39 18 -49 7z" fill="#a86b0a"/>
<path d="M5194 4656 c-10 -26 4 -48 28 -44 17 2 23 10 23 28 0 18 -6 26 -23 28 -13 2 -25 -3 -28 -12z" fill="#a86b0a"/>
<path d="M1875 4630 c-8 -27 1 -40 30 -40 27 0 36 17 23 43 -12 23 -45 22 -53 -3z" fill="#a86b0a"/>
<path d="M3258 4550 c-22 -13 -80 -109 -73 -120 3 -5 37 -6 75 -3 81 7 220 -13 220 -32 0 -16 -26 -36 -85 -67 -85 -43 -141 -74 -166 -92 -24 -17 -23 -17 21 -10 25 4 54 13 65 20 11 8 29 14 41 14 33 0 113 47 148 87 17 20 39 45 49 55 9 10 17 21 17 25 0 3 6 14 14 22 8 9 22 29 30 46 15 28 14 30 -12 47 -23 15 -49 18 -177 18 -82 -1 -157 -5 -167 -10z" fill="#a86b0a"/>
<path d="M5252 4503 c2 -22 8 -28 28 -28 20 0 26 6 28 28 3 24 0 27 -28 27 -28 0 -31 -3 -28 -27z" fill="#a86b0a"/>
<path d="M1827 4503 c-13 -13 -7 -42 12 -52 15 -8 21 -5 32 15 11 22 11 27 -1 34 -18 11 -34 13 -43 3z" fill="#a86b0a"/>
<path d="M2427 4485 c-4 -11 -16 -33 -27 -50 -11 -16 -22 -37 -26 -45 -3 -8 -11 -28 -19 -45 -7 -16 -16 -41 -20 -55 -3 -14 -10 -34 -15 -45 -41 -100 -55 -266 -25 -311 32 -49 54 -64 93 -64 63 0 113 68 132 177 l7 43 -31 -36 c-27 -32 -37 -36 -75 -36 -51 1 -73 18 -91 71 -23 70 -3 163 65 299 26 50 45 98 43 104 -3 7 -7 4 -11 -7z" fill="#a86b0a"/>
<path d="M5300 4380 c-19 -12 -1 -45 25 -45 26 0 44 33 25 45 -8 5 -19 10 -25 10 -5 0 -17 -5 -25 -10z" fill="#a86b0a"/>
<path d="M1780 4365 c-19 -23 -8 -50 23 -53 23 -3 27 0 27 20 0 23 -16 48 -31 48 -4 0 -12 -7 -19 -15z" fill="#a86b0a"/>
<path d="M5335 4229 c-9 -28 8 -43 39 -35 28 7 33 25 14 44 -19 19 -46 14 -53 -9z" fill="#a86b0a"/>
<path d="M1747 4223 c-4 -3 -7 -17 -7 -30 0 -19 5 -23 30 -23 22 0 30 5 30 18 0 31 -35 54 -53 35z" fill="#a86b0a"/>
<path d="M5382 4098 c-28 -28 -3 -66 33 -52 20 8 19 50 -1 58 -20 8 -18 8 -32 -6z" fill="#a86b0a"/>
<path d="M1736 4065 c-9 -25 5 -45 30 -45 29 0 41 24 24 45 -16 19 -46 19 -54 0z" fill="#a86b0a"/>
<path d="M2830 3902 c-22 -8 -39 -34 -40 -60 0 -21 1 -22 16 -8 19 20 34 20 62 0 21 -15 22 -14 22 13 0 43 -26 67 -60 55z" fill="#a86b0a"/>
<path d="M1743 3815 c0 -27 2 -38 4 -22 2 15 2 37 0 50 -2 12 -4 0 -4 -28z" fill="#a86b0a"/>
<path d="M2587 3843 c-4 -3 -7 -18 -7 -33 0 -26 41 -60 72 -60 24 0 45 -31 66 -95 20 -59 42 -84 42 -48 0 10 2 36 5 58 4 30 3 34 -4 15 l-8 -25 -13 30 c-39 89 -53 115 -75 139 -23 24 -63 34 -78 19z" fill="#a86b0a"/>
<path d="M5423 3785 c0 -22 2 -30 4 -17 2 12 2 30 0 40 -3 9 -5 -1 -4 -23z" fill="#a86b0a"/>
<path d="M5573 3765 c0 -27 2 -38 4 -22 2 15 2 37 0 50 -2 12 -4 0 -4 -28z" fill="#a86b0a"/>
<path d="M2782 3755 c0 -16 2 -22 5 -12 2 9 2 23 0 30 -3 6 -5 -1 -5 -18z" fill="#a86b0a"/>
<path d="M5431 3724 c0 -11 3 -14 6 -6 3 7 2 16 -1 19 -3 4 -6 -2 -5 -13z" fill="#a86b0a"/>
<path d="M1591 3722 c-2 -20 48 -92 64 -92 18 0 49 30 58 56 5 15 3 15 -9 -3 -22 -30 -74 -32 -81 -3 -3 11 -9 20 -13 20 -5 0 -11 8 -13 18 -3 9 -5 11 -6 4z" fill="#a86b0a"/>
<path d="M5457 3686 c9 -26 40 -56 57 -56 16 0 46 37 46 55 0 5 -5 2 -11 -7 -15 -26 -63 -23 -83 5 -12 18 -14 18 -9 3z" fill="#a86b0a"/>
<path d="M5526 3466 c5 -37 21 -56 40 -49 11 4 9 10 -10 28 -13 12 -26 28 -29 36 -2 8 -3 1 -1 -15z" fill="#a86b0a"/>
<path d="M5470 3453 c-8 -13 -22 -23 -30 -24 -8 0 -4 -5 9 -10 30 -12 44 0 39 32 l-3 24 -15 -22z" fill="#a86b0a"/>
<path d="M1607 3442 c-16 -17 -16 -20 -2 -26 16 -6 30 14 23 34 -2 7 -11 4 -21 -8z" fill="#a86b0a"/>
<path d="M1680 3441 c0 -24 13 -33 34 -25 14 5 14 9 -5 25 -27 24 -29 24 -29 0z" fill="#a86b0a"/>
<path d="M1716 3226 c3 -49 16 -63 46 -48 18 8 19 11 6 11 -10 1 -18 6 -18 11 0 6 -6 10 -14 10 -8 0 -17 12 -19 28 -2 15 -3 10 -1 -12z" fill="#a86b0a"/>
<path d="M2911 3208 c-1 -9 -7 -23 -15 -30 -7 -8 -17 -30 -20 -49 -6 -29 -4 -27 19 19 14 29 24 58 21 65 -2 7 -5 5 -5 -5z" fill="#a86b0a"/>
<path d="M5424 3206 c-3 -9 -14 -16 -23 -16 -14 -1 -14 -2 2 -11 22 -13 47 -5 47 15 0 22 -19 30 -26 12z" fill="#a86b0a"/>
<path d="M1663 3193 c-7 -2 -13 -11 -13 -18 0 -7 -6 -16 -12 -18 -7 -3 -1 -6 15 -6 22 -1 27 3 27 24 0 14 -1 25 -2 24 -2 0 -9 -3 -15 -6z" fill="#a86b0a"/>
<path d="M5490 3176 c0 -19 5 -26 20 -26 17 0 19 3 10 19 -16 32 -30 34 -30 7z" fill="#a86b0a"/>
<path d="M2845 3070 c-4 -17 -5 -34 -2 -36 2 -3 7 10 11 27 8 42 0 50 -9 9z" fill="#a86b0a"/>
<path d="M2808 2939 c-26 -110 -24 -148 12 -197 26 -37 35 -42 68 -42 26 0 43 7 57 23 26 29 50 83 59 129 l7 37 -35 -35 c-44 -44 -78 -45 -117 -3 -24 26 -29 39 -31 97 l-3 67 -17 -76z" fill="#a86b0a"/>
<path d="M1886 2983 c-6 -14 -5 -15 5 -6 7 7 10 15 7 18 -3 3 -9 -2 -12 -12z" fill="#a86b0a"/>
<path d="M1820 2971 c0 -28 12 -40 31 -30 10 5 19 15 19 21 0 6 -3 8 -6 5 -4 -3 -15 -2 -25 4 -12 6 -19 6 -19 0z" fill="#a86b0a"/>
<path d="M5312 2972 c-28 -3 -30 -5 -18 -18 19 -18 45 -18 53 1 7 20 5 21 -35 17z" fill="#a86b0a"/>
<path d="M5391 2943 c-1 -31 3 -43 13 -43 15 0 14 5 -7 70 -3 8 -6 -4 -6 -27z" fill="#a86b0a"/>
<path d="M1770 2950 c0 -5 -9 -19 -20 -30 l-20 -20 25 0 c21 0 25 5 25 30 0 17 -2 30 -5 30 -3 0 -5 -4 -5 -10z" fill="#a86b0a"/>
<path d="M5212 2743 c-1 -36 2 -43 18 -43 17 0 18 3 8 30 -7 21 -7 34 0 43 8 9 6 13 -7 13 -15 0 -19 -9 -19 -43z" fill="#a86b0a"/>
<path d="M1933 2736 c-9 -29 -9 -36 2 -36 20 0 25 13 17 45 l-8 28 -11 -37z" fill="#a86b0a"/>
<path d="M1971 2751 c16 -25 34 -27 43 -6 3 9 0 15 -8 15 -8 0 -22 3 -31 6 -15 6 -15 4 -4 -15z" fill="#a86b0a"/>
<path d="M5168 2763 c-22 -6 -23 -22 -2 -30 15 -5 33 11 34 30 0 7 -4 7 -32 0z" fill="#a86b0a"/>
<path d="M2160 2587 c0 -1 8 -10 18 -18 17 -15 20 -15 31 2 10 17 8 19 -19 19 -16 0 -30 -1 -30 -3z" fill="#a86b0a"/>
<path d="M4962 2573 c8 -10 15 -10 32 -1 33 17 32 18 -6 16 -27 -2 -34 -6 -26 -15z" fill="#a86b0a"/>
<path d="M2115 2550 c-3 -5 -4 -14 -1 -19 4 -5 0 -12 -6 -14 -7 -3 -3 -6 10 -6 15 -1 22 5 22 18 0 23 -16 36 -25 21z" fill="#a86b0a"/>
<path d="M5030 2530 c0 -14 7 -20 23 -20 16 0 18 3 8 9 -7 5 -10 14 -7 20 4 6 0 11 -8 11 -9 0 -16 -9 -16 -20z" fill="#a86b0a"/>
<path d="M836 2457 c4 -12 20 -51 36 -87 138 -303 129 -274 97 -326 -11 -19 -25 -34 -30 -34 -5 0 -9 -4 -9 -10 0 -5 -8 -18 -17 -28 -10 -10 -25 -29 -33 -42 -8 -12 -21 -28 -27 -36 -7 -7 -13 -17 -13 -23 0 -6 -4 -11 -8 -11 -4 0 -15 -12 -24 -27 -9 -16 -25 -37 -35 -48 -24 -25 -33 -49 -25 -62 18 -27 326 -57 510 -50 83 3 124 1 129 -6 4 -6 6 -59 4 -118 -1 -84 1 -108 13 -118 31 -26 321 -89 511 -111 44 -5 107 -15 140 -22 84 -18 890 -18 955 0 25 7 83 16 130 22 180 20 389 65 629 134 29 9 61 16 70 16 9 0 34 7 56 15 22 8 56 14 76 15 19 0 39 4 45 9 5 5 45 14 89 21 44 6 121 18 170 26 50 7 135 18 190 24 55 6 134 15 175 20 77 11 641 14 695 5 57 -10 56 -9 54 -97 -3 -97 7 -162 27 -179 8 -6 14 -16 14 -21 0 -20 66 -74 110 -91 71 -27 115 -24 460 28 187 28 351 39 408 26 29 -6 69 -11 88 -11 34 0 73 -13 138 -46 16 -8 31 -13 33 -10 7 7 -9 56 -18 56 -5 0 -9 5 -9 11 0 7 -10 33 -21 58 -12 25 -28 60 -35 76 -7 17 -20 46 -28 67 -9 20 -16 41 -16 46 0 6 -5 12 -10 14 -6 2 -13 19 -16 39 -5 31 -1 43 31 85 21 27 41 50 46 52 5 2 9 8 9 13 0 11 69 103 81 107 5 2 9 8 9 13 0 8 19 35 46 63 6 7 14 21 18 33 5 16 1 22 -16 28 -68 23 -208 38 -408 44 l-225 6 4 110 c4 120 3 122 -54 142 -62 21 -293 66 -455 87 -229 30 -684 50 -742 32 -25 -7 -28 -5 -28 13 0 12 7 24 15 27 12 5 13 9 4 21 -11 12 -14 12 -21 -1 -6 -10 -23 -16 -48 -16 -35 0 -40 -3 -40 -24 0 -21 -5 -24 -67 -29 -38 -4 -93 -7 -123 -7 -30 0 -71 -4 -90 -10 -19 -5 -76 -14 -125 -19 -149 -17 -495 -85 -558 -110 -16 -6 -39 -11 -52 -11 -12 0 -36 -7 -51 -15 -16 -8 -43 -15 -61 -15 -17 0 -34 -4 -37 -9 -3 -5 -23 -12 -43 -15 -21 -4 -67 -13 -103 -21 -171 -37 -247 -47 -314 -42 -38 3 -74 11 -80 17 -5 5 -17 10 -26 10 -23 0 -153 41 -164 51 -6 5 -19 9 -31 9 -12 0 -30 7 -41 15 -10 8 -25 15 -33 15 -22 0 -273 126 -297 149 -15 13 -20 27 -17 45 5 25 4 26 -22 16 -22 -8 -33 -7 -52 5 -31 21 -48 10 -22 -16 11 -11 22 -33 25 -49 6 -25 8 -27 21 -15 19 19 42 19 49 0 4 -8 10 -15 15 -15 4 0 28 -13 52 -30 54 -36 237 -130 255 -130 6 0 12 -4 12 -10 0 -5 6 -10 12 -10 13 0 108 -35 140 -51 10 -5 24 -9 32 -9 8 0 16 -6 19 -13 12 -31 -462 -48 -714 -25 l-137 12 -4 125 c-4 100 -9 133 -24 160 -23 41 -50 71 -64 71 -5 0 -10 4 -10 9 0 16 -79 41 -128 41 -52 0 -279 -26 -302 -34 -17 -6 -153 -22 -304 -36 -123 -12 -334 10 -370 39 -6 4 -26 13 -44 19 -32 11 -33 10 -26 -11z m4500 -146 c83 -5 187 -15 230 -21 209 -31 332 -52 359 -60 17 -5 47 -12 68 -15 29 -5 37 -10 37 -27 0 -16 -4 -19 -22 -13 -41 12 -162 36 -232 45 -38 5 -76 12 -85 16 -22 10 -243 31 -456 44 -190 12 -509 6 -635 -10 -41 -6 -118 -15 -170 -20 -185 -20 -459 -69 -584 -106 -26 -8 -55 -14 -62 -14 -8 0 -22 -4 -32 -10 -9 -5 -37 -14 -62 -19 -55 -12 -120 -29 -184 -47 -26 -8 -60 -14 -75 -14 -14 0 -48 -7 -75 -15 -27 -8 -68 -15 -92 -15 -23 0 -55 -5 -71 -11 -15 -5 -79 -14 -143 -20 -63 -5 -153 -13 -200 -18 -104 -12 -514 -12 -630 -1 -47 5 -140 13 -207 19 -67 6 -134 16 -148 21 -14 6 -46 10 -70 10 -25 0 -64 6 -87 14 -24 8 -63 16 -88 20 -78 10 -145 32 -148 50 -4 20 -2 20 93 -4 43 -11 87 -20 98 -20 12 0 48 -6 81 -14 252 -58 806 -93 1036 -66 47 5 139 14 205 20 127 10 229 24 307 41 26 6 71 15 100 19 62 11 158 32 243 55 33 9 83 22 110 30 28 7 63 18 78 24 16 6 46 11 67 11 21 0 41 4 44 9 4 5 25 12 49 16 23 3 71 12 107 20 143 30 410 66 564 75 177 10 509 11 682 1z m-391 -181 c0 -24 -3 -25 -62 -28 -62 -3 -63 -3 -63 -32 0 -28 1 -29 58 -32 53 -3 57 -5 57 -28 0 -23 -4 -25 -50 -28 -59 -4 -70 -12 -61 -46 6 -24 10 -26 66 -26 57 0 60 -1 60 -24 0 -15 -7 -27 -17 -30 -29 -8 -157 -11 -169 -4 -12 8 -27 268 -17 294 4 12 23 14 102 12 95 -3 96 -3 96 -28z m152 0 c3 -16 9 -30 14 -30 5 0 9 -5 9 -11 0 -6 8 -27 17 -46 l16 -36 39 77 c39 77 39 77 76 74 l37 -3 2 -89 c1 -49 -2 -117 -5 -150 -7 -60 -8 -61 -37 -61 l-30 0 -5 77 -5 77 -24 -54 c-14 -30 -33 -58 -44 -61 -21 -7 -43 16 -53 56 -4 14 -13 34 -20 45 -12 17 -14 10 -14 -57 0 -81 -7 -91 -54 -80 -17 5 -18 14 -12 131 3 69 6 136 6 149 0 19 5 22 40 22 37 0 41 -3 47 -30z m-448 5 c34 -17 50 -70 54 -176 3 -98 -34 -129 -157 -129 -74 0 -75 1 -76 115 -1 39 -5 93 -10 120 -4 28 -5 54 0 58 8 9 86 24 133 26 15 0 41 -6 56 -14z m794 -33 c11 -26 24 -57 29 -69 l11 -22 18 24 c11 13 19 27 19 33 0 22 47 62 74 62 25 0 28 -3 22 -26 -6 -22 -38 -76 -56 -94 -15 -15 -50 -101 -50 -123 0 -43 -10 -57 -41 -57 -31 0 -32 1 -33 75 -1 32 -13 78 -34 127 -40 97 -41 118 -4 118 23 0 30 -7 45 -48z m-1104 -29 c16 -33 37 -81 45 -103 3 -8 10 -22 15 -30 28 -49 41 -81 41 -99 0 -12 -2 -21 -4 -21 -2 0 -11 -3 -19 -6 -9 -3 -25 6 -40 21 -22 24 -29 26 -66 20 -30 -5 -44 -13 -53 -32 -20 -40 -44 -51 -65 -31 -14 14 -15 22 -5 43 7 14 12 45 12 68 0 24 7 69 15 100 8 32 15 66 15 76 0 21 56 42 80 30 9 -4 22 -20 29 -36z m-251 -20 c12 -10 24 -30 27 -44 6 -23 3 -27 -19 -31 -17 -3 -34 1 -48 14 -12 11 -29 16 -37 12 -9 -3 -24 -9 -33 -11 -10 -3 -18 -10 -18 -17 0 -21 33 -151 41 -160 11 -12 79 13 79 29 0 14 29 35 49 35 16 0 23 -43 12 -73 -12 -31 -65 -56 -125 -58 -76 -3 -93 22 -116 165 -13 79 -2 119 33 132 12 4 31 10 42 14 37 14 92 10 113 -7z m-329 -79 c12 -15 21 -33 21 -40 0 -8 4 -14 9 -14 5 0 13 -10 17 -22 3 -12 19 -39 35 -61 16 -22 29 -44 29 -49 0 -5 7 -16 15 -24 22 -23 18 -43 -11 -50 -18 -5 -30 -1 -45 14 -15 17 -27 20 -52 15 -46 -9 -67 -21 -67 -41 0 -36 -52 -59 -63 -28 -3 8 -1 80 6 159 11 141 12 145 37 155 39 15 47 14 69 -14z m-307 -91 c16 -17 28 -44 31 -68 3 -22 11 -62 17 -89 15 -59 2 -89 -45 -112 -38 -18 -147 -36 -156 -26 -12 13 -29 75 -29 104 0 16 -7 51 -16 77 -8 27 -14 64 -12 82 3 32 5 34 51 41 27 4 52 9 55 12 3 3 22 6 42 6 27 0 43 -7 62 -27z m-249 -78 c4 -33 12 -86 17 -118 9 -49 8 -62 -7 -87 -23 -40 -95 -65 -141 -49 -18 6 -32 17 -32 23 0 19 37 49 50 41 6 -4 22 -4 36 -1 22 6 24 11 24 61 0 29 -4 64 -9 77 -4 13 -11 42 -15 65 -6 44 2 53 49 50 17 -2 21 -12 28 -62z m-1086 33 c8 -6 13 -21 11 -32 -4 -25 -44 -33 -89 -17 -27 9 -31 8 -41 -14 -14 -32 -8 -38 50 -45 44 -5 47 -7 47 -35 0 -27 -3 -30 -30 -29 -16 0 -42 4 -57 8 -27 8 -28 7 -28 -27 0 -34 0 -34 60 -46 53 -11 60 -15 60 -35 0 -32 -13 -35 -90 -25 -118 16 -113 13 -107 72 18 163 28 230 33 239 9 14 163 2 181 -14z m123 -65 c0 -32 -5 -85 -10 -118 -11 -69 -7 -75 61 -75 50 0 65 -15 54 -51 -7 -22 -8 -22 -107 -7 l-78 11 0 87 c0 48 3 115 6 149 l7 61 33 0 34 0 0 -57z m687 20 c28 -66 41 -97 58 -143 9 -25 21 -53 26 -62 18 -35 11 -48 -25 -48 -26 0 -36 5 -41 20 -11 33 -77 27 -117 -10 -60 -58 -87 -26 -54 66 7 22 16 62 20 89 4 28 12 67 18 88 11 35 13 37 55 37 41 0 44 -2 60 -37z m-410 -48 c29 -60 39 -73 50 -64 7 6 13 18 13 26 0 7 11 36 25 63 23 46 28 50 60 50 l35 0 0 -154 c0 -128 -3 -155 -15 -160 -35 -13 -44 4 -47 87 l-3 82 -27 -57 c-15 -31 -31 -59 -36 -62 -23 -14 -49 8 -68 56 l-19 50 -5 -73 -5 -74 -35 0 -35 0 -3 139 c-3 151 2 166 49 166 26 0 33 -8 66 -75z m2878 -45 c44 -5 131 -14 193 -19 62 -6 121 -15 131 -21 11 -5 39 -10 62 -10 24 0 68 -7 98 -15 31 -8 77 -17 104 -20 38 -5 47 -10 47 -26 0 -22 -4 -22 -62 -9 -172 38 -296 57 -458 70 -58 5 -141 14 -185 20 -155 22 -853 -1 -951 -31 -18 -5 -69 -12 -115 -16 -46 -3 -92 -10 -102 -15 -9 -5 -45 -13 -80 -18 -34 -5 -93 -16 -132 -25 -38 -9 -95 -23 -125 -30 -30 -7 -91 -23 -135 -35 -44 -12 -91 -24 -105 -27 -14 -2 -47 -10 -75 -18 -83 -23 -191 -45 -222 -45 -17 0 -43 -4 -59 -10 -28 -9 -99 -19 -294 -41 -124 -13 -690 -13 -800 0 -47 6 -123 15 -170 20 -47 6 -105 15 -130 20 -48 11 -132 26 -216 40 -28 5 -61 14 -72 20 -11 6 -32 11 -46 11 -16 0 -26 6 -26 15 0 19 51 19 105 0 22 -8 51 -15 64 -15 13 0 47 -6 75 -14 144 -41 420 -67 761 -73 349 -6 476 4 820 61 108 18 245 51 414 100 29 9 61 16 70 16 10 0 37 6 62 14 24 7 67 19 96 26 50 11 78 16 223 40 36 6 85 15 110 20 25 6 97 15 160 21 63 6 142 14 175 18 85 11 694 11 790 1z" fill="#a86b0a"/>
<path d="M4533 2003 c7 -106 12 -116 51 -107 17 3 35 10 40 14 4 5 5 45 1 89 l-7 81 -45 0 -46 0 6 -77z" fill="#a86b0a"/>
<path d="M4280 1991 c0 -10 -3 -33 -6 -50 -5 -26 -3 -31 12 -31 40 0 47 14 27 58 -19 45 -33 54 -33 23z" fill="#a86b0a"/>
<path d="M3720 1845 c0 -41 2 -45 25 -45 14 0 25 6 25 13 0 13 -37 77 -45 77 -3 0 -5 -20 -5 -45z" fill="#a86b0a"/>
<path d="M3325 1830 c-15 -23 22 -180 42 -180 7 0 24 5 39 12 25 12 26 14 19 71 -10 92 -19 107 -59 107 -19 0 -38 -5 -41 -10z" fill="#a86b0a"/>
<path d="M2861 1701 c-16 -54 -14 -61 14 -61 34 0 39 18 17 62 l-19 37 -12 -38z" fill="#a86b0a"/>
</g>
</svg>